<?xml version="1.0" encoding="utf-8"?>
<!-- Generator: Adobe Illustrator 25.3.1, SVG Export Plug-In . SVG Version: 6.00 Build 0)  -->
<svg version="1.1" id="Layer_1" xmlns="http://www.w3.org/2000/svg" xmlns:xlink="http://www.w3.org/1999/xlink" x="0px" y="0px"
	 viewBox="0 0 1366 768" style="enable-background:new 0 0 1366 768;" xml:space="preserve">
<style type="text/css">
	.st0{fill-rule:evenodd;clip-rule:evenodd;fill:#FFFFFF;}
</style>
<g>
	<polygon class="st0" points="586,288 778.8,288 778.8,480.8 586,480.8 586,288 	"/>
	<path d="M601.7,420.6c-2.9,0-5-0.2-7.2-0.8v-25.7h3.8v7.2c0,1.1-0.1,2.6-0.4,3.6l0.1,0c1.1-2.7,3.7-4.3,6.9-4.3
		c4.9,0,7.7,3.2,7.7,9.1C612.6,416.5,608.4,420.6,601.7,420.6L601.7,420.6z M604,403.5c-3.8,0-5.7,4.1-5.7,7.4v6.4
		c1.1,0.3,2.2,0.5,3.7,0.5c4,0,6.7-2.2,6.7-7.8C608.6,405.9,607.2,403.5,604,403.5L604,403.5z"/>
	<polygon points="615.4,420.3 615.4,394.1 619.2,394.1 619.2,420.3 615.4,420.3 	"/>
	<path d="M651.5,420.6c-5,0-9.2-2.2-9.2-9.3c0-6.2,3.5-10.6,10.4-10.6c1.6,0,3.3,0.2,4.8,0.6l-0.4,3.1c-1.3-0.5-2.9-0.8-4.5-0.8
		c-4.2,0-6.3,2.9-6.3,7.3c0,3.8,1.3,6.8,6,6.8c1.8,0,3.6-0.4,5-1l0.3,3C656.2,420.1,654,420.6,651.5,420.6L651.5,420.6z"/>
	<polygon points="672,420.3 664.2,410.4 664.2,420.3 660.4,420.3 660.4,394.1 664.2,394.1 664.2,409.5 671.6,401 676.2,401 
		668.1,409.8 676.8,420.3 672,420.3 	"/>
	<path d="M685.8,420.6c-2.9,0-5-0.2-7.2-0.8v-25.7h3.8v7.2c0,1.1-0.1,2.6-0.4,3.6l0.1,0c1.1-2.7,3.7-4.3,6.9-4.3
		c4.9,0,7.7,3.2,7.7,9.1C696.7,416.5,692.5,420.6,685.8,420.6L685.8,420.6z M688.1,403.5c-3.8,0-5.7,4.1-5.7,7.4v6.4
		c1.1,0.3,2.2,0.5,3.7,0.5c4,0,6.6-2.2,6.6-7.8C692.7,405.9,691.2,403.5,688.1,403.5L688.1,403.5z"/>
	<path d="M708.1,420.7c-5.7,0-9.4-3-9.4-9.8c0-5.7,3.9-10.2,10.2-10.2c5.3,0,9.4,2.7,9.4,9.7C718.3,416.2,714.3,420.7,708.1,420.7
		L708.1,420.7z M708.6,403.6c-3,0-5.9,2.1-5.9,6.9c0,4.7,2.1,7.2,5.9,7.2c3.1,0,5.8-2.3,5.8-7.2
		C714.4,406.1,712.4,403.6,708.6,403.6L708.6,403.6z"/>
	<path d="M752.1,404.1c-4.4-0.7-6.5,2.3-6.5,8.5v7.8h-3.8V401h3.7c0,1.2-0.1,3-0.5,4.6h0.1c0.9-2.7,3-5.4,7.2-4.9L752.1,404.1
		L752.1,404.1z"/>
	<path d="M766.6,420.3c0-1.1,0.1-2.8,0.3-3.9l-0.1,0c-1.2,2.6-3.7,4.3-7,4.3c-5.1,0-7.7-3.5-7.7-9.1c0-6.8,4.2-10.8,10.8-10.8
		c1.1,0,2.3,0.1,3.5,0.2v-6.8h3.8v26.2H766.6L766.6,420.3z M766.5,403.9c-1.3-0.3-2.5-0.4-3.7-0.4c-4,0-6.6,2.2-6.6,7.8
		c0,4.2,1.5,6.5,4.6,6.5c3.8,0,5.7-4.1,5.7-7.5V403.9L766.5,403.9z"/>
	<path d="M636.2,420.3c0-1.1,0.1-2.8,0.3-3.9l-0.1,0c-1.2,2.6-3.7,4.3-7,4.3c-5.1,0-7.7-3.5-7.7-9.1c0-6.8,4.2-10.8,10.8-10.8
		c1.1,0,2.2,0.1,3.2,0.2c0,0,3.2,0.6,3.7,1.5c0.3,0.6,0.5,17.9,0.5,17.9H636.2L636.2,420.3z M636.1,403.9c-1.3-0.3-2.5-0.4-3.7-0.4
		c-4,0-6.7,2.2-6.7,7.8c0,4.2,1.5,6.5,4.6,6.5c3.8,0,5.7-4.1,5.7-7.5V403.9L636.1,403.9z"/>
	<path d="M734.9,420.3c0-1.1,0.1-2.8,0.3-3.9l-0.1,0c-1.2,2.6-3.7,4.3-7,4.3c-5.1,0-7.7-3.5-7.7-9.1c0-6.8,4.2-10.8,10.8-10.8
		c1.1,0,2.2,0.1,3.2,0.2c0,0,3.2,0.6,3.7,1.5c0.3,0.6,0.5,17.9,0.5,17.9H734.9L734.9,420.3z M734.7,403.9c-1.3-0.3-2.5-0.4-3.7-0.4
		c-4,0-6.7,2.2-6.7,7.8c0,4.2,1.5,6.5,4.6,6.5c3.8,0,5.7-4.1,5.7-7.5V403.9L734.7,403.9z"/>
	<polygon points="680,364.8 637.1,364.8 637.1,348.1 680,348.1 680,364.8 	"/>
	<polygon points="727.6,364.8 684.8,364.8 684.8,348.1 727.6,348.1 727.6,364.8 	"/>
</g>
</svg>
